<mxfile host="app.diagrams.net" modified="2023-08-24T20:13:33.016Z" agent="Mozilla/5.0 (Windows NT 10.0; Win64; x64) AppleWebKit/537.36 (KHTML, like Gecko) Chrome/116.0.0.0 Safari/537.36" version="21.4.0" etag="Qz7CFghf0L0VpcqKFV2p" type="github">
  <diagram name="Page-1" id="9aQV9EtM8HuYwJ6LVBrh">
    <mxGraphModel>
      <root>
        <mxCell id="0" />
        <mxCell id="1" parent="0" />
      </root>
    </mxGraphModel>
  </diagram>
</mxfile>
